HIERARCHY
ROOT RootJoint
{
    OFFSET   0.000000   0.000000   0.000000
    CHANNELS 6 Xposition Yposition Zposition Xrotation Yrotation Zrotation
    JOINT pelvis_lowerback
    {
        OFFSET   0.000000   0.093605   0.000000
        CHANNELS 3 Xrotation Yrotation Zrotation
        JOINT lowerback_torso
        {
            OFFSET   0.000000   0.100000   0.000000
            CHANNELS 3 Xrotation Yrotation Zrotation
            JOINT torso_head
            {
                OFFSET   0.000000   0.282350   0.000000
                CHANNELS 3 Xrotation Yrotation Zrotation
                End Site
                {
                    OFFSET   0.000000   0.192650   0.000000
                }
            }
            JOINT rTorso_Clavicle
            {
                OFFSET  -0.001000   0.157500   0.000000
                CHANNELS 3 Xrotation Yrotation Zrotation
                JOINT rShoulder
                {
                    OFFSET  -0.117647   0.000000   0.000000
                    CHANNELS 3 Xrotation Yrotation Zrotation
                    JOINT rElbow
                    {
                        OFFSET  -0.245000   0.000000   0.000000
                        CHANNELS 3 Xrotation Yrotation Zrotation
                        JOINT rWrist
                        {
                            OFFSET  -0.240000   0.000000   0.000000
                            CHANNELS 3 Xrotation Yrotation Zrotation
                            End Site
                            {
                                OFFSET  -0.116353  -0.002500   0.000000
                            }
                        }
                    }
                }
            }
            JOINT lTorso_Clavicle
            {
                OFFSET   0.001000   0.157500   0.000000
                CHANNELS 3 Xrotation Yrotation Zrotation
                JOINT lShoulder
                {
                    OFFSET   0.117647   0.000000   0.000000
                    CHANNELS 3 Xrotation Yrotation Zrotation
                    JOINT lElbow
                    {
                        OFFSET   0.245000   0.000000   0.000000
                        CHANNELS 3 Xrotation Yrotation Zrotation
                        JOINT lWrist
                        {
                            OFFSET   0.240000   0.000000   0.000000
                            CHANNELS 3 Xrotation Yrotation Zrotation
                            End Site
                            {
                                OFFSET   0.116353  -0.002500   0.000000
                            }
                        }
                    }
                }
            }
        }
    }
    JOINT rHip
    {
        OFFSET  -0.100000  -0.051395   0.000000
        CHANNELS 3 Xrotation Yrotation Zrotation
        JOINT rKnee
        {
            OFFSET   0.000000  -0.410000   0.000000
            CHANNELS 3 Xrotation Yrotation Zrotation
            JOINT rAnkle
            {
                OFFSET   0.000000  -0.390000   0.000000
                CHANNELS 3 Xrotation Yrotation Zrotation
                JOINT rToeJoint
                {
                    OFFSET   0.000000  -0.050000   0.130000
                    CHANNELS 3 Xrotation Yrotation Zrotation
                    End Site
                    {
                        OFFSET  -0.010000   0.002000   0.060000
                    }
                }
            }
        }
    }
    JOINT lHip
    {
        OFFSET   0.100000  -0.051395   0.000000
        CHANNELS 3 Xrotation Yrotation Zrotation
        JOINT lKnee
        {
            OFFSET   0.000000  -0.410000   0.000000
            CHANNELS 3 Xrotation Yrotation Zrotation
            JOINT lAnkle
            {
                OFFSET   0.000000  -0.390000   0.000000
                CHANNELS 3 Xrotation Yrotation Zrotation
                JOINT lToeJoint
                {
                    OFFSET   0.000000  -0.050000   0.130000
                    CHANNELS 3 Xrotation Yrotation Zrotation
                    End Site
                    {
                        OFFSET   0.010000   0.002000   0.060000
                    }
                }
            }
        }
    }
}
MOTION
Frames: 7
Frame Time:   0.008333
 -1.192417   0.875532   3.718342 -162.352996  70.409472 161.955907  24.689866  -0.349487   0.880886   9.362141  -1.413926   4.151524   3.767694  -2.854134   1.186199  -1.123297   6.482749   3.603925  -2.584750   6.650978  39.385470  -0.008717  36.054072   0.008533   2.493589   4.449459  -2.653631  -0.317526 -10.160747  -1.936566   6.018371 -16.047693 -43.458527  -0.000116 -44.355787   0.000684   4.230173  -5.405527  -1.614631 -23.109293  -2.906944  -7.799801  61.644498   0.010968  -0.005923  -7.446885  -7.514851   7.060189  -3.933695  -0.000027   0.000070 -11.033310   4.186877  -1.171458  40.091490   0.000045   0.000319 -22.781250   3.545461   7.073541  -1.814818   0.000259   0.000974
 -1.188533   0.875696   3.717852 -161.654394  70.314727 161.022464  24.929396  -0.490554   1.076640   9.400230  -1.464814   4.265767   3.861741  -2.819294   1.242858  -1.038680   6.232482   3.589643  -2.404105   6.635060  39.310813  -0.007800  36.641183   0.008167   2.530082   4.535424  -2.858356  -0.248217 -10.109470  -1.991326   5.876497 -16.121636 -43.503304  -0.000223 -44.268695   0.000343   4.296385  -5.524385  -1.475284 -23.605747  -2.943912  -7.414096  59.314739   0.011018  -0.007333  -7.489297  -7.559850   7.064274  -3.910292  -0.000136   0.000144 -10.564003   4.363963  -0.747485  40.237318   0.000072   0.000638 -23.065134   3.439190   6.873636  -1.880647   0.000150   0.000680
 -1.184630   0.875697   3.717399 -161.055155  70.239313 160.213108  25.138337  -0.627405   1.230303   9.431808  -1.514739   4.371818   3.947781  -2.787011   1.298138  -0.942112   5.979418   3.591888  -2.221358   6.611133  39.261028  -0.006859  37.188763   0.007743   2.565749   4.626910  -3.028991  -0.163751 -10.039870  -2.033465   5.762297 -16.176230 -43.546127  -0.000322 -44.178656   0.000069   4.361032  -5.602521  -1.363058 -24.077596  -2.951729  -7.103168  56.884453   0.010354  -0.007750  -7.532274  -7.600885   7.067841  -3.844628  -0.000408   0.000350 -10.136960   4.544816  -0.353965  40.395864   0.000086   0.000906 -23.381957   3.343242   6.680533  -1.923769   0.000086   0.000480
 -1.180719   0.875558   3.716997 -160.491017  70.160859 159.460510  25.342477  -0.758460   1.361476   9.469420  -1.564300   4.468503   4.026370  -2.757288   1.348341  -0.841484   5.732094   3.604290  -2.041897   6.581020  39.222837  -0.005938  37.696045   0.007197   2.598876   4.699285  -3.175246  -0.077123  -9.965440  -2.068652   5.663691 -16.219468 -43.583827  -0.000403 -44.090050  -0.000137   4.423647  -5.650564  -1.263436 -24.540085  -2.942456  -6.854111  54.544070   0.009111  -0.007536  -7.574805  -7.639642   7.070765  -3.781952  -0.000584   0.000492  -9.731593   4.717880   0.015978  40.576833   0.000093   0.001163 -23.719417   3.254713   6.494253  -1.964057   0.000041   0.000326
 -1.176793   0.875322   3.716659 -159.954686  70.067492 158.750739  25.546652  -0.884065   1.480833   9.517079  -1.613821   4.559731   4.099852  -2.729700   1.394298  -0.740415   5.494022   3.624219  -1.868259   6.547234  39.192307  -0.005053  38.165967   0.006551   2.629626   4.750131  -3.305026   0.007305  -9.892185  -2.101547   5.575312 -16.256120 -43.618108  -0.000467 -44.004562  -0.000286   4.484128  -5.679382  -1.170283 -24.992389  -2.922342  -6.651661  52.339639   0.007478  -0.007172  -7.615476  -7.676258   7.073270  -3.726616  -0.000668   0.000574  -9.341411   4.880861   0.371085  40.777105   0.000097   0.001415 -24.064512   3.173123   6.316050  -2.014947   0.000003   0.000184
 -1.172845   0.875029   3.716392 -159.454082  69.954761 158.087771  25.749974  -1.004329   1.592961   9.573962  -1.663122   4.647710   4.169264  -2.703996   1.436892  -0.640675   5.266829   3.650440  -1.701579   6.511638  39.168249  -0.004217  38.601716   0.005840   2.658242   4.783006  -3.421095   0.088184  -9.822520  -2.134391   5.494692 -16.288751 -43.650634  -0.000516 -43.923093  -0.000386   4.542388  -5.696523  -1.083300 -25.432713  -2.894430  -6.485830  50.277872   0.005655  -0.006909  -7.653952  -7.710806   7.075442  -3.678989  -0.000688   0.000612  -8.964580   5.033430   0.716150  40.989868   0.000103   0.001660 -24.407030   3.098248   6.147041  -2.083789  -0.000030   0.000037
 -1.168869   0.874707   3.716199 -158.998636  69.821899 157.478730  25.950268  -1.118985   1.699823   9.637743  -1.711653   4.733260   4.234972  -2.680004   1.476642  -0.543304   5.051310   3.681964  -1.542403   6.475571  39.150030  -0.003443  39.006215   0.005099   2.684948   4.802041  -3.524402   0.165166  -9.757250  -2.167961   5.420541 -16.318678 -43.682338  -0.000549 -43.846032  -0.000445   4.598393  -5.706686  -1.003184 -25.859448  -2.860671  -6.349914  48.354424   0.003811  -0.006836  -7.690220  -7.743361   7.077331  -3.638558  -0.000665   0.000619  -8.600716   5.175740   1.053912  41.208628   0.000112   0.001890 -24.739966   3.029734   5.987875  -2.174060  -0.000053  -0.000126
